<?xml version="1.0" encoding="iso-8859-1"?>
<!-- Generator: Adobe Illustrator 19.0.0, SVG Export Plug-In . SVG Version: 6.00 Build 0)  -->
<svg version="1.1" id="Layer_1" xmlns="http://www.w3.org/2000/svg" xmlns:xlink="http://www.w3.org/1999/xlink" x="0px" y="0px"
	 viewBox="0 0 473.931 473.931" style="enable-background:new 0 0 473.931 473.931;" xml:space="preserve">
<circle style="fill:#D7DABA;" cx="236.966" cy="236.966" r="236.966"/>
<path style="fill:#A53460;" d="M144.398,93.791c-8.827,0-15.981,7.154-15.981,15.981v255.757c0,8.827,7.154,15.981,15.981,15.981
	H328.22c8.827,0,15.981-7.154,15.981-15.981V167.814l-77.05-74.023H144.398z"/>
<g>
	<path style="fill:#8E2852;" d="M344.201,167.814h-61.066c-8.827,0-15.981-7.154-15.981-15.981V93.791L344.201,167.814z"/>
	<path style="fill:#8E2852;" d="M263.966,271.772c0,10.189-8.258,18.447-18.439,18.447H110.876
		c-10.189,0-18.439-8.258-18.439-18.447v-56.351c0-10.189,8.251-18.443,18.439-18.443h134.651c10.181,0,18.439,8.254,18.439,18.443
		V271.772z"/>
</g>
<g>
	<path style="fill:#FFFFFF;" d="M155.814,253.014c0,2.268-0.584,4.307-1.751,6.114c-1.171,1.807-2.881,3.222-5.13,4.247
		c-2.249,1.025-4.917,1.534-8.007,1.534c-3.701,0-6.754-0.7-9.156-2.099c-1.706-1.007-3.091-2.35-4.153-4.03
		c-1.066-1.68-1.601-3.311-1.601-4.898c0-0.92,0.322-1.71,0.958-2.365c0.644-0.655,1.456-0.984,2.443-0.984
		c0.801,0,1.482,0.254,2.036,0.767c0.55,0.513,1.025,1.268,1.418,2.275c0.479,1.194,0.995,2.189,1.549,2.993
		c0.55,0.801,1.332,1.463,2.339,1.983c1.007,0.52,2.327,0.778,3.966,0.778c2.253,0,4.082-0.524,5.485-1.572
		c1.411-1.048,2.11-2.357,2.11-3.925c0-1.246-0.382-2.256-1.141-3.031c-0.756-0.778-1.74-1.369-2.937-1.777
		c-1.205-0.408-2.81-0.846-4.823-1.306c-2.694-0.629-4.947-1.369-6.769-2.211c-1.811-0.846-3.255-1.994-4.318-3.454
		c-1.066-1.459-1.601-3.27-1.601-5.437c0-2.062,0.561-3.899,1.688-5.5c1.126-1.601,2.754-2.836,4.887-3.697s4.636-1.291,7.521-1.291
		c2.301,0,4.292,0.284,5.976,0.857c1.676,0.572,3.072,1.328,4.18,2.275c1.108,0.947,1.92,1.942,2.428,2.978
		c0.509,1.036,0.767,2.054,0.767,3.042c0,0.905-0.318,1.717-0.962,2.443c-0.636,0.726-1.437,1.089-2.391,1.089
		c-0.868,0-1.53-0.217-1.979-0.651c-0.453-0.434-0.943-1.149-1.474-2.137c-0.685-1.414-1.5-2.518-2.455-3.311
		c-0.954-0.793-2.488-1.19-4.602-1.19c-1.961,0-3.54,0.43-4.748,1.291c-1.197,0.861-1.8,1.897-1.8,3.109
		c0,0.752,0.206,1.399,0.614,1.946c0.408,0.546,0.973,1.014,1.688,1.407s1.441,0.7,2.174,0.92c0.733,0.221,1.946,0.546,3.633,0.973
		c2.114,0.494,4.026,1.04,5.744,1.639c1.71,0.599,3.173,1.321,4.37,2.174c1.205,0.853,2.14,1.931,2.814,3.237
		C155.481,249.523,155.814,251.125,155.814,253.014z"/>
	<path style="fill:#FFFFFF;" d="M192.42,259.615c1.108,0.752,2.32,1.482,3.633,2.185c1.313,0.703,2.181,1.268,2.608,1.688
		c0.427,0.419,0.64,1.01,0.64,1.777c0,0.546-0.251,1.093-0.756,1.639c-0.501,0.546-1.111,0.819-1.826,0.819
		c-0.58,0-1.283-0.187-2.11-0.561c-0.827-0.374-1.796-0.921-2.915-1.639c-1.115-0.715-2.339-1.553-3.667-2.507
		c-2.473,1.261-5.508,1.893-9.107,1.893c-2.915,0-5.53-0.464-7.843-1.396c-2.309-0.932-4.251-2.268-5.818-4.015
		s-2.746-3.824-3.543-6.23c-0.79-2.406-1.186-5.021-1.186-7.854c0-2.881,0.412-5.527,1.239-7.929
		c0.831-2.406,2.028-4.449,3.596-6.14s3.48-2.978,5.729-3.876c2.249-0.898,4.808-1.343,7.674-1.343c3.888,0,7.229,0.79,10.013,2.365
		c2.791,1.575,4.902,3.82,6.331,6.728s2.148,6.32,2.148,10.245C197.254,251.42,195.642,256.135,192.42,259.615z M186.459,255.472
		c1.055-1.212,1.837-2.645,2.342-4.296c0.501-1.654,0.752-3.573,0.752-5.755c0-2.746-0.442-5.126-1.328-7.136
		s-2.152-3.532-3.802-4.565c-1.643-1.033-3.532-1.549-5.665-1.549c-1.515,0-2.919,0.284-4.209,0.857
		c-1.287,0.572-2.395,1.403-3.326,2.496c-0.928,1.093-1.658,2.485-2.2,4.183c-0.535,1.699-0.804,3.603-0.804,5.717
		c0,4.314,1.007,7.637,3.02,9.964c2.013,2.327,4.554,3.491,7.622,3.491c1.261,0,2.559-0.266,3.888-0.793
		c-0.801-0.599-1.804-1.194-3.005-1.792c-1.205-0.599-2.028-1.059-2.47-1.381c-0.442-0.322-0.666-0.782-0.666-1.381
		c0-0.513,0.213-0.962,0.64-1.355c0.427-0.393,0.894-0.587,1.407-0.587C180.211,251.585,182.807,252.879,186.459,255.472z"/>
	<path style="fill:#FFFFFF;" d="M211.192,230.736v27.292h15.397c1.227,0,2.17,0.299,2.829,0.894
		c0.655,0.599,0.984,1.347,0.984,2.253c0,0.92-0.326,1.665-0.973,2.238c-0.647,0.572-1.594,0.857-2.84,0.857h-18.338
		c-1.654,0-2.844-0.367-3.57-1.1c-0.722-0.733-1.085-1.92-1.085-3.555v-28.879c0-1.534,0.348-2.687,1.033-3.454
		c0.696-0.767,1.601-1.152,2.728-1.152c1.145,0,2.069,0.382,2.776,1.137C210.841,228.03,211.192,229.187,211.192,230.736z"/>
</g>
<g>
</g>
<g>
</g>
<g>
</g>
<g>
</g>
<g>
</g>
<g>
</g>
<g>
</g>
<g>
</g>
<g>
</g>
<g>
</g>
<g>
</g>
<g>
</g>
<g>
</g>
<g>
</g>
<g>
</g>
</svg>
